<?xml version="1.0" standalone="no"?>
<!DOCTYPE svg PUBLIC "-//W3C//DTD SVG 20010904//EN"
 "http://www.w3.org/TR/2001/REC-SVG-20010904/DTD/svg10.dtd">
<svg version="1.0" xmlns="http://www.w3.org/2000/svg"
 width="300.000000pt" height="300.000000pt" viewBox="0 0 300.000000 300.000000"
 preserveAspectRatio="xMidYMid meet">
<metadata>
Created by potrace 1.14, written by Peter Selinger 2001-2017
</metadata>
<g transform="translate(0.000000,300.000000) scale(0.100000,-0.100000)"
fill="#000000" stroke="none">
<path d="M778 2145 c-160 -30 -267 -85 -362 -185 -105 -110 -152 -261 -143
-459 13 -303 163 -500 433 -568 121 -31 478 -18 669 24 120 26 109 -7 114 351
l3 310 -38 11 c-23 6 -140 11 -281 11 -229 0 -243 -1 -253 -19 -5 -11 -10 -68
-10 -126 0 -142 2 -145 95 -145 l75 0 0 -44 c0 -25 -5 -48 -11 -52 -6 -4 -50
-9 -98 -11 -156 -8 -194 34 -204 225 -11 200 13 304 82 349 39 26 97 30 126 9
11 -8 24 -29 30 -47 l12 -34 197 -8 c108 -5 209 -6 223 -2 26 6 26 7 20 81 -4
41 -16 97 -28 124 -37 87 -139 162 -266 196 -84 22 -290 27 -385 9z"/>
<path d="M2065 2146 c-231 -45 -379 -158 -452 -343 -25 -63 -27 -80 -28 -218
0 -112 5 -170 19 -230 52 -226 178 -367 376 -421 92 -25 302 -25 384 0 204 62
328 192 367 385 19 92 21 91 -222 91 -109 0 -204 -3 -213 -6 -9 -3 -23 -31
-32 -61 -27 -93 -74 -117 -132 -68 -46 39 -56 98 -48 284 10 206 30 255 109
268 46 7 71 -18 86 -88 6 -29 16 -59 23 -66 8 -10 52 -13 187 -12 97 1 190 4
206 8 30 6 30 7 29 77 -1 123 -63 246 -162 319 -104 77 -329 114 -497 81z"/>
</g>
</svg>
